<svg xmlns="http://www.w3.org/2000/svg" version="1.1" xmlns:xlink="http://www.w3.org/1999/xlink" width="1000" height="1000"><metadata><rdf:RDF xmlns:rdf="http://www.w3.org/1999/02/22-rdf-syntax-ns#" xmlns:dc="http://purl.org/dc/elements/1.1/"><rdf:Description><dc:creator>RealFaviconGenerator</dc:creator><dc:source>https://realfavicongenerator.net</dc:source></rdf:Description></rdf:RDF></metadata><g clip-path="url(#SvgjsClipPath3953)"><rect width="1000" height="1000" fill="#000000"></rect><g transform="matrix(1.953125,0,0,1.953125,0,0)"><svg xmlns="http://www.w3.org/2000/svg" width="512" height="512" viewBox="0 0 26 26" fill="none"><rect width="26" height="26" fill="#0a0a0a"></rect><path d="M13 22C13 22 4 16.5 4 9.5C4 7.01 5.99 5 8.5 5C10.24 5 11.75 5.99 12.5 7.44L13 8.38L13.5 7.44C14.25 5.99 15.76 5 17.5 5C20.01 5 22 7.01 22 9.5C22 16.5 13 22 13 22Z" fill="#3b82f6" fill-opacity="0.8"></path><path d="M8 13h2.5l1.5-3 2 5 1.5-3.5H18" stroke="#93c5fd" stroke-width="1.5" stroke-linecap="round" stroke-linejoin="round"></path></svg></g></g><defs><clipPath id="SvgjsClipPath3953"><rect width="1000" height="1000" x="0" y="0" rx="500" ry="500"></rect></clipPath></defs></svg>